<svg xmlns="http://www.w3.org/2000/svg" viewBox="-15 -25 45 45" width="500" height="500" shape-rendering="crispEdges">
  <title>Maclawd Delegating Parallel Armature</title>
  <desc>Three short helper arms branch from one shoulder-mounted allocator.</desc>
  <g id="allocator" fill="#455A64">
    <rect x="3" y="5" width="9" height="1"/>
    <rect x="6" y="3" width="3" height="3"/>
    <rect x="7" y="0" width="1" height="3"/>
    <rect x="4" y="2" width="3" height="1"/>
    <rect x="3" y="1" width="1" height="2"/>
    <rect x="9" y="2" width="3" height="1"/>
    <rect x="12" y="1" width="1" height="2"/>
  </g>
  <rect x="7" y="4" width="1" height="1" fill="#1E1E2E"/>
  <rect x="6" y="-1" width="3" height="1" fill="#FFC107"/>
  <rect x="2" y="0" width="2" height="1" fill="#40C4FF"/>
  <rect x="12" y="0" width="2" height="1" fill="#40C4FF"/>
  <g id="maclawd-body">
    <g id="body-color-group" fill="#DE886D">
      <rect id="outer-left-leg" x="3" y="13" width="1" height="2"/>
      <rect id="inner-left-leg" x="5" y="13" width="1" height="2"/>
      <rect id="inner-right-leg" x="9" y="13" width="1" height="2"/>
      <rect id="outer-right-leg" x="11" y="13" width="1" height="2"/>
      <rect id="torso" x="2" y="6" width="11" height="7"/>
      <rect id="left-arm" x="0" y="9" width="2" height="2"/>
      <rect id="right-arm" x="13" y="9" width="2" height="2"/>
    </g>
    <g id="eyes-js" fill="#000000">
      <rect id="left-eye" x="4" y="8" width="1" height="2"/>
      <rect id="right-eye" x="10" y="8" width="1" height="2"/>
    </g>
  </g>
</svg>
