<svg xmlns="http://www.w3.org/2000/svg" viewBox="-15 -25 45 45" width="500" height="500" shape-rendering="crispEdges">
  <g id="body-js" transform="translate(-2 -3)">
    <g id="body-color-group" fill="#DE886D">
      <rect x="2" y="6" width="11" height="7"/>
      <g transform="translate(-1 -1)"><rect x="0" y="9" width="2" height="2"/></g>
      <g transform="translate(1 1)"><rect x="13" y="9" width="2" height="2"/></g>
      <rect x="3" y="13" width="1" height="2"/>
      <rect x="5" y="13" width="1" height="2"/>
      <rect x="9" y="13" width="1" height="2"/>
      <rect x="11" y="13" width="1" height="2"/>
    </g>
    <g id="eyes-js" fill="#000000" transform="translate(1 1)">
      <rect x="4" y="8" width="1" height="2"/>
      <rect x="10" y="8" width="1" height="2"/>
    </g>
  </g>

  <path d="M 13 8 V 11 H 10 V 14 H 7" fill="none" stroke="#F6C85F" stroke-width="1"/>

  <g id="hatchling-one" transform="translate(4 12)" fill="#DE886D">
    <rect x="0" y="0" width="4" height="3"/>
    <rect x="-1" y="1" width="1" height="1"/>
    <rect x="4" y="1" width="1" height="1"/>
    <rect x="1" y="3" width="1" height="1"/>
    <rect x="3" y="3" width="1" height="1"/>
    <rect x="1" y="1" width="1" height="1" fill="#000000"/>
    <rect x="3" y="1" width="1" height="1" fill="#000000"/>
  </g>
  <g id="hatchling-two" transform="translate(10 14)" fill="#F0A05F">
    <rect x="0" y="0" width="4" height="2"/>
    <rect x="-1" y="1" width="1" height="1"/>
    <rect x="4" y="1" width="1" height="1"/>
    <rect x="1" y="2" width="1" height="1"/>
    <rect x="3" y="2" width="1" height="1"/>
    <rect x="1" y="0" width="1" height="1" fill="#000000"/>
    <rect x="3" y="0" width="1" height="1" fill="#000000"/>
  </g>
  <g id="hatchling-three" transform="translate(16 12)" fill="#C98FBA">
    <rect x="0" y="0" width="4" height="3"/>
    <rect x="-1" y="1" width="1" height="1"/>
    <rect x="4" y="1" width="1" height="1"/>
    <rect x="1" y="3" width="1" height="1"/>
    <rect x="3" y="3" width="1" height="1"/>
    <rect x="1" y="1" width="1" height="1" fill="#000000"/>
    <rect x="3" y="1" width="1" height="1" fill="#000000"/>
  </g>
</svg>
