<svg xmlns="http://www.w3.org/2000/svg" viewBox="-15 -25 45 45" width="500" height="500" shape-rendering="crispEdges">
  <title>Maclawd Needs Owner Decision Gate</title>
  <desc>A compact attached panel waits for the owner's choice without selecting for them.</desc>
  <g id="maclawd-body">
    <g id="body-color-group" fill="#DE886D">
      <rect id="outer-left-leg" x="3" y="13" width="1" height="2"/>
      <rect id="inner-left-leg" x="5" y="13" width="1" height="2"/>
      <rect id="inner-right-leg" x="9" y="13" width="1" height="2"/>
      <rect id="outer-right-leg" x="11" y="13" width="1" height="2"/>
      <rect id="torso" x="2" y="6" width="11" height="7"/>
      <rect id="left-arm" x="0" y="9" width="2" height="2"/>
      <rect id="right-arm" x="13" y="9" width="2" height="2"/>
    </g>
    <g id="eyes-js" fill="#000000">
      <rect id="left-eye" x="4" y="8" width="1" height="2"/>
      <rect id="right-eye" x="10" y="8" width="1" height="2"/>
    </g>
  </g>
  <g id="decision-panel">
    <rect x="13" y="8" width="2" height="3" fill="#455A64"/>
    <rect x="15" y="6" width="5" height="7" fill="#455A64"/>
    <rect x="16" y="7" width="1" height="2" fill="#FFC107"/>
    <rect x="18" y="7" width="1" height="2" fill="#D7F3FF"/>
    <rect x="16" y="10" width="3" height="2" fill="#1E1E2E"/>
    <rect x="17" y="9" width="1" height="1" fill="#FFE082"/>
  </g>
</svg>
