<svg xmlns="http://www.w3.org/2000/svg" viewBox="-15 -25 45 45" width="500" height="500" shape-rendering="crispEdges">
  <g id="body-js" transform="translate(0 -1)">
    <g id="body-color-group" fill="#DE886D">
      <rect x="2" y="6" width="11" height="7"/>
      <g transform="translate(4 1)"><rect x="0" y="9" width="2" height="2"/></g>
      <g transform="translate(-4 1)"><rect x="13" y="9" width="2" height="2"/></g>
      <rect x="3" y="13" width="1" height="2"/>
      <rect x="5" y="13" width="1" height="2"/>
      <rect x="9" y="13" width="1" height="2"/>
      <rect x="11" y="13" width="1" height="2"/>
    </g>
    <g id="eyes-js" fill="#000000" transform="translate(0 1)">
      <rect x="4" y="8" width="1" height="2"/>
      <rect x="10" y="8" width="1" height="2"/>
    </g>
  </g>

  <g id="stuck-jar">
    <rect x="4" y="9" width="7" height="2" fill="#5A4A42"/>
    <rect x="3" y="11" width="9" height="5" fill="#BDE7E4"/>
    <rect x="4" y="12" width="7" height="3" fill="#F4D3E7"/>
    <rect x="4" y="11" width="1" height="1" fill="#FFFFFF"/>
    <rect x="5" y="14" width="5" height="1" fill="#C98FBA"/>
  </g>
</svg>
