<svg xmlns="http://www.w3.org/2000/svg" viewBox="-15 -25 45 45" width="500" height="500" shape-rendering="crispEdges">
  <title>Maclawd Success Completion Stamp</title>
  <desc>Maclawd presses a connected lever to reveal a green completion plate.</desc>
  <g id="maclawd-body">
    <g id="body-color-group" fill="#DE886D">
      <rect id="outer-left-leg" x="3" y="13" width="1" height="2"/>
      <rect id="inner-left-leg" x="5" y="13" width="1" height="2"/>
      <rect id="inner-right-leg" x="9" y="13" width="1" height="2"/>
      <rect id="outer-right-leg" x="11" y="13" width="1" height="2"/>
      <rect id="torso" x="2" y="6" width="11" height="7"/>
      <rect id="left-arm" x="0" y="9" width="2" height="2"/>
      <rect id="right-arm" x="13" y="9" width="2" height="2"/>
    </g>
    <g id="eyes-js" fill="#000000">
      <rect id="left-eye" x="4" y="8" width="1" height="2"/>
      <rect id="right-eye" x="10" y="8" width="1" height="2"/>
    </g>
  </g>
  <g id="completion-stamp">
    <rect x="14" y="14" width="6" height="2" fill="#455A64"/>
    <rect x="18" y="8" width="2" height="6" fill="#455A64"/>
    <rect x="14" y="8" width="5" height="1" fill="#455A64"/>
    <rect x="14" y="7" width="2" height="2" fill="#FFC107"/>
    <rect x="17" y="8" width="1" height="1" fill="#1E1E2E"/>
    <rect x="15" y="13" width="4" height="1" fill="#66BB6A"/>
    <rect x="16" y="12" width="2" height="1" fill="#A5D6A7"/>
  </g>
</svg>
