<svg xmlns="http://www.w3.org/2000/svg" viewBox="-15 -25 45 45" width="500" height="500" shape-rendering="crispEdges">
  <rect x="-2" y="15" width="19" height="1" fill="#E8D9B5"/>

  <g id="shells">
    <g transform="translate(1 0)">
      <rect x="-1" y="12" width="4" height="3" fill="#7BC8C4"/>
      <rect x="0" y="11" width="2" height="1" fill="#BDE7E4"/>
      <rect x="0" y="13" width="1" height="1" fill="#3E7775"/>
    </g>
    <g transform="translate(6 -2)">
      <rect x="-1" y="12" width="4" height="3" fill="#F6C85F"/>
      <rect x="0" y="11" width="2" height="1" fill="#FFE59A"/>
      <rect x="1" y="13" width="1" height="1" fill="#B67B19"/>
    </g>
    <g transform="translate(12 0)">
      <rect x="-1" y="12" width="4" height="3" fill="#B9A1D9"/>
      <rect x="0" y="11" width="2" height="1" fill="#E6D9F5"/>
      <rect x="1" y="13" width="1" height="1" fill="#72558F"/>
    </g>
  </g>

  <g id="body-js" transform="translate(0 -1)">
    <g id="body-color-group" fill="#DE886D">
      <rect x="2" y="6" width="11" height="7"/>
      <g transform="translate(1 2)"><rect x="0" y="9" width="2" height="2"/></g>
      <g transform="translate(-1 -1)"><rect x="13" y="9" width="2" height="2"/></g>
      <rect x="3" y="13" width="1" height="2"/>
      <rect x="5" y="13" width="1" height="2"/>
      <rect x="9" y="13" width="1" height="2"/>
      <rect x="11" y="13" width="1" height="2"/>
    </g>
    <g id="eyes-js" fill="#000000" transform="translate(-1 1)">
      <rect x="4" y="8" width="1" height="2"/>
      <rect x="10" y="8" width="1" height="2"/>
    </g>
  </g>
</svg>
