<?xml-stylesheet type="text/css" href="maclawd-actions.css"?>
<svg xmlns="http://www.w3.org/2000/svg" class="state-away" viewBox="-15 -25 45 45" width="500" height="500" shape-rendering="crispEdges">
  <title>Maclawd Blanket Drag</title><desc>Maclawd stretches, grows sleepy, and drags one large folded blanket into place.</desc>
  <g class="blanket motion">
    <path d="M-7 10H-1V11H2V16H0V18H-2V17H-5V18H-7Z" fill="#B9A1D9"/>
    <path d="M-6 10H-1V11H1V12H-6Z" fill="#E7DCF2"/><rect x="-6" y="14" width="7" height="1" fill="#8B73B3"/>
    <rect x="-6" y="17" width="1" height="2" fill="#F6C85F"/><rect x="-2" y="17" width="1" height="2" fill="#F6C85F"/><rect x="1" y="16" width="1" height="2" fill="#F6C85F"/>
  </g>
  <g class="actor motion"><g fill="#DE886D">
    <rect id="outer-left-leg" x="3" y="13" width="1" height="2"/><rect id="inner-left-leg" x="5" y="13" width="1" height="2"/><rect id="inner-right-leg" x="9" y="13" width="1" height="2"/><rect id="outer-right-leg" x="11" y="13" width="1" height="2"/><rect id="torso" x="2" y="6" width="11" height="7"/>
    <g class="left-claw motion"><rect id="left-arm" x="0" y="9" width="2" height="2"/></g><g class="right-claw motion"><rect id="right-arm" x="13" y="9" width="2" height="2"/></g>
  </g><g class="eyes motion blink" fill="#000"><rect id="left-eye" x="4" y="8" width="1" height="2"/><rect id="right-eye" x="10" y="8" width="1" height="2"/></g></g>
</svg>
