<?xml-stylesheet type="text/css" href="maclawd-actions.css"?>
<svg xmlns="http://www.w3.org/2000/svg" class="state-reading" viewBox="-15 -25 45 45" width="500" height="500" shape-rendering="crispEdges">
  <title>Maclawd Floor Book</title><desc>Maclawd settles on a round reading rug behind one body-width open book and flips a page.</desc>
  <g class="reading-rug"><path d="M-8 12H22V15H24V19H22V20H-8V19H-10V15H-8Z" fill="#72558F"/><path d="M-7 12H21V14H23V18H21V19H-7V18H-9V14H-7Z" fill="#B9A1D9"/><rect x="-4" y="16" width="22" height="1" fill="#E7DCF2"/></g>
  <g class="actor motion"><g fill="#DE886D">
    <rect id="outer-left-leg" x="3" y="13" width="1" height="2"/><rect id="inner-left-leg" x="5" y="13" width="1" height="2"/><rect id="inner-right-leg" x="9" y="13" width="1" height="2"/><rect id="outer-right-leg" x="11" y="13" width="1" height="2"/><rect id="torso" x="2" y="6" width="11" height="7"/>
    <g class="left-claw motion"><rect id="left-arm" x="0" y="9" width="2" height="2"/></g><g class="right-claw motion"><rect id="right-arm" x="13" y="9" width="2" height="2"/></g>
  </g><g class="eyes motion blink" fill="#000"><rect id="left-eye" x="4" y="8" width="1" height="2"/><rect id="right-eye" x="10" y="8" width="1" height="2"/></g></g>
  <g class="book motion"><path d="M0 10H6L8 12L10 10H16V17H10L8 16L6 17H0Z" fill="#3E7775"/><path d="M1 11H6L8 13V16L6 15H1Z" fill="#FFF4D7"/><path d="M8 13L10 11H15V15H10L8 16Z" fill="#FFF4D7"/><rect x="2" y="12" width="4" height="1" fill="#D9C79F"/><rect x="10" y="12" width="4" height="1" fill="#D9C79F"/><g class="page motion"><path d="M8 13L10 11H15V15H10L8 16Z" fill="#FFE59A"/><rect x="10" y="12" width="4" height="1" fill="#D4AC46"/></g></g>
</svg>
