<?xml-stylesheet type="text/css" href="maclawd-actions.css"?>
<svg xmlns="http://www.w3.org/2000/svg" class="state-owner-resolved" viewBox="-15 -25 45 45" width="500" height="500" shape-rendering="crispEdges">
  <title>Maclawd Jar Click</title><desc>The stuck lid clicks open; Maclawd steadies the jar and answers with a relieved blink.</desc>
  <g class="jar motion"><g class="lid motion"><rect x="-6" y="8" width="7" height="2" fill="#544942"/><rect x="-5" y="7" width="5" height="1" fill="#7A6A60"/></g><path d="M-6 10H1V17H0V18H-5V17H-6Z" fill="#BDE7E4"/><rect x="-5" y="11" width="1" height="4" fill="#FFF"/><rect x="-4" y="13" width="3" height="3" fill="#F4D3E7"/><rect x="-3" y="15" width="2" height="1" fill="#C98FBA"/></g>
  <g class="actor motion"><g fill="#DE886D">
    <rect id="outer-left-leg" x="3" y="13" width="1" height="2"/><rect id="inner-left-leg" x="5" y="13" width="1" height="2"/><rect id="inner-right-leg" x="9" y="13" width="1" height="2"/><rect id="outer-right-leg" x="11" y="13" width="1" height="2"/><rect id="torso" x="2" y="6" width="11" height="7"/>
    <g class="left-claw motion"><rect id="left-arm" x="0" y="9" width="2" height="2"/></g><g class="right-claw motion"><rect id="right-arm" x="13" y="9" width="2" height="2"/></g>
  </g><g class="eyes motion blink" fill="#000000"><rect id="left-eye" x="4" y="8" width="1" height="2"/><rect id="right-eye" x="10" y="8" width="1" height="2"/></g></g>
</svg>
