<?xml-stylesheet type="text/css" href="maclawd-actions.css"?>
<svg xmlns="http://www.w3.org/2000/svg" class="state-syncing" viewBox="-15 -25 45 45" width="500" height="500" shape-rendering="crispEdges">
  <title>Maclawd Spool Sync</title><desc>Maclawd pulls a striped sync spool up a short vertical cord between both claws.</desc>
  <g class="actor motion"><g fill="#DE886D">
    <rect id="outer-left-leg" x="3" y="13" width="1" height="2"/><rect id="inner-left-leg" x="5" y="13" width="1" height="2"/><rect id="inner-right-leg" x="9" y="13" width="1" height="2"/><rect id="outer-right-leg" x="11" y="13" width="1" height="2"/><rect id="torso" x="2" y="6" width="11" height="7"/>
    <g class="left-claw motion"><rect id="left-arm" x="0" y="9" width="2" height="2"/></g><g class="right-claw motion"><rect id="right-arm" x="13" y="9" width="2" height="2"/></g>
  </g><g class="eyes motion blink" fill="#000"><rect id="left-eye" x="4" y="8" width="1" height="2"/><rect id="right-eye" x="10" y="8" width="1" height="2"/></g></g>
  <g class="cord motion"><rect x="7" y="-1" width="2" height="18" fill="#544942"/><rect x="6" y="-2" width="4" height="2" fill="#F6C85F"/></g><g class="bead motion"><rect x="6" y="5" width="4" height="2" fill="#F6C85F"/><path d="M3 7H13V13H3Z" fill="#7BC8C4"/><rect x="4" y="8" width="8" height="1" fill="#BDE7E4"/><rect x="4" y="11" width="8" height="1" fill="#3E7775"/><rect x="6" y="13" width="4" height="2" fill="#F6C85F"/></g>
</svg>
