<?xml-stylesheet type="text/css" href="maclawd-actions.css"?>
<svg xmlns="http://www.w3.org/2000/svg" class="state-syncing" viewBox="-15 -25 45 45" width="500" height="500" shape-rendering="crispEdges">
  <title>Maclawd Chest Relay</title><desc>Maclawd passes one large bead along a chest-height cord from one claw to the other.</desc>
  <g class="actor motion"><g fill="#DE886D">
    <rect id="outer-left-leg" x="3" y="13" width="1" height="2"/><rect id="inner-left-leg" x="5" y="13" width="1" height="2"/><rect id="inner-right-leg" x="9" y="13" width="1" height="2"/><rect id="outer-right-leg" x="11" y="13" width="1" height="2"/><rect id="torso" x="2" y="6" width="11" height="7"/>
    <g class="left-claw motion"><rect id="left-arm" x="0" y="9" width="2" height="2"/></g><g class="right-claw motion"><rect id="right-arm" x="13" y="9" width="2" height="2"/></g>
  </g><g class="eyes motion blink" fill="#000"><rect id="left-eye" x="4" y="8" width="1" height="2"/><rect id="right-eye" x="10" y="8" width="1" height="2"/></g></g>
  <g class="cord motion"><rect x="-2" y="12" width="19" height="2" fill="#544942"/></g><g class="bead motion"><path d="M5 9H10V10H12V15H10V16H5V15H3V10H5Z" fill="#7BC8C4"/><rect x="6" y="10" width="3" height="1" fill="#BDE7E4"/><rect x="7" y="12" width="1" height="2" fill="#3E7775"/></g>
</svg>
