<?xml-stylesheet type="text/css" href="maclawd-actions.css"?>
<svg xmlns="http://www.w3.org/2000/svg" class="state-syncing" viewBox="-15 -25 45 45" width="500" height="500" shape-rendering="crispEdges">
  <title>Maclawd Clothesline Relay</title><desc>Maclawd slides one large striped pouch along a short clothesline from one claw to the other.</desc>
  <g class="sync-yard"><path d="M-10 15H23V20H-10Z" fill="#DCEBD9"/><rect x="-8" y="17" width="29" height="1" fill="#B9D2C0"/><rect x="-8" y="5" width="2" height="13" fill="#7C5A3B"/><rect x="20" y="5" width="2" height="13" fill="#7C5A3B"/></g>
  <g class="actor motion"><g fill="#DE886D">
    <rect id="outer-left-leg" x="3" y="13" width="1" height="2"/><rect id="inner-left-leg" x="5" y="13" width="1" height="2"/><rect id="inner-right-leg" x="9" y="13" width="1" height="2"/><rect id="outer-right-leg" x="11" y="13" width="1" height="2"/><rect id="torso" x="2" y="6" width="11" height="7"/>
    <g class="left-claw motion"><rect id="left-arm" x="0" y="9" width="2" height="2"/></g><g class="right-claw motion"><rect id="right-arm" x="13" y="9" width="2" height="2"/></g>
  </g><g class="eyes motion blink" fill="#000"><rect id="left-eye" x="4" y="8" width="1" height="2"/><rect id="right-eye" x="10" y="8" width="1" height="2"/></g></g>
  <g class="cord motion"><rect x="-7" y="8" width="28" height="2" fill="#544942"/></g><g class="bead motion"><rect x="5" y="8" width="2" height="3" fill="#F6C85F"/><path d="M3 10H11V17H3Z" fill="#7BC8C4"/><rect x="4" y="12" width="6" height="1" fill="#BDE7E4"/><rect x="4" y="15" width="6" height="1" fill="#3E7775"/></g>
</svg>
