<?xml-stylesheet type="text/css" href="maclawd-actions.css"?>
<svg xmlns="http://www.w3.org/2000/svg" class="state-needs-owner" viewBox="-15 -25 45 45" width="500" height="500" shape-rendering="crispEdges">
  <title>Maclawd Jar Assist</title><desc>Maclawd struggles with one large jar beside its body, then pushes it toward the owner without covering its face.</desc>
  <g class="jar motion"><g class="lid motion"><rect x="-8" y="7" width="8" height="2" fill="#544942"/><rect x="-7" y="6" width="6" height="1" fill="#7A6A60"/></g><path d="M-8 9H0V17H-1V18H-7V17H-8Z" fill="#BDE7E4"/><rect x="-7" y="10" width="1" height="5" fill="#FFF"/><rect x="-6" y="13" width="4" height="3" fill="#F4D3E7"/><rect x="-5" y="15" width="3" height="1" fill="#C98FBA"/></g>
  <g class="actor motion"><g fill="#DE886D">
    <rect id="outer-left-leg" x="3" y="13" width="1" height="2"/><rect id="inner-left-leg" x="5" y="13" width="1" height="2"/><rect id="inner-right-leg" x="9" y="13" width="1" height="2"/><rect id="outer-right-leg" x="11" y="13" width="1" height="2"/><rect id="torso" x="2" y="6" width="11" height="7"/>
    <g class="left-claw motion"><rect id="left-arm" x="0" y="9" width="2" height="2"/></g><g class="right-claw motion"><rect id="right-arm" x="13" y="9" width="2" height="2"/></g>
  </g><g class="eyes motion blink" fill="#000"><rect id="left-eye" x="4" y="8" width="1" height="2"/><rect id="right-eye" x="10" y="8" width="1" height="2"/></g></g>
</svg>
