<?xml-stylesheet type="text/css" href="maclawd-actions.css"?>
<svg xmlns="http://www.w3.org/2000/svg" class="state-command" viewBox="-15 -25 45 45" width="500" height="500" shape-rendering="crispEdges">
  <title>Maclawd Wind-up Command</title><desc>Maclawd winds a tiny connected toy, releases it, and watches it execute.</desc>
  <g class="toy motion"><rect x="4" y="13" width="7" height="4" fill="#7BC8C4"/><rect x="5" y="12" width="5" height="1" fill="#DDF3F1"/><rect x="5" y="17" width="2" height="1" fill="#455A64"/><rect x="9" y="17" width="2" height="1" fill="#455A64"/></g>
  <g class="key motion" fill="#F6C85F"><rect x="7" y="10" width="1" height="4"/><rect x="5" y="10" width="5" height="1"/><rect x="5" y="9" width="1" height="2"/><rect x="9" y="9" width="1" height="2"/></g>
  <g class="actor motion"><g fill="#DE886D"><rect id="outer-left-leg" x="3" y="13" width="1" height="2"/><rect id="inner-left-leg" x="5" y="13" width="1" height="2"/><rect id="inner-right-leg" x="9" y="13" width="1" height="2"/><rect id="outer-right-leg" x="11" y="13" width="1" height="2"/><rect id="torso" x="2" y="6" width="11" height="7"/><g class="left-claw motion"><rect id="left-arm" x="0" y="9" width="2" height="2"/></g><g class="right-claw motion"><rect id="right-arm" x="13" y="9" width="2" height="2"/></g></g><g class="eyes motion blink" fill="#000000"><rect id="left-eye" x="4" y="8" width="1" height="2"/><rect id="right-eye" x="10" y="8" width="1" height="2"/></g></g>
</svg>
