<?xml-stylesheet type="text/css" href="maclawd-actions.css"?>
<svg xmlns="http://www.w3.org/2000/svg" class="state-error" viewBox="-15 -25 45 45" width="500" height="500" shape-rendering="crispEdges">
  <title>Maclawd Basket Rescue</title><desc>A broad woven basket tips over Maclawd; it wriggles free, stands, and gets nudged again.</desc>
  <g class="floor-scene"><path d="M-8 16H22V20H-8Z" fill="#DCEBD9"/><rect x="-6" y="17" width="26" height="1" fill="#B9D2C0"/></g>
  <g class="actor motion"><g fill="#DE886D">
    <rect id="outer-left-leg" x="3" y="13" width="1" height="2"/><rect id="inner-left-leg" x="5" y="13" width="1" height="2"/><rect id="inner-right-leg" x="9" y="13" width="1" height="2"/><rect id="outer-right-leg" x="11" y="13" width="1" height="2"/><rect id="torso" x="2" y="6" width="11" height="7"/>
    <g class="left-claw motion"><rect id="left-arm" x="0" y="9" width="2" height="2"/></g><g class="right-claw motion"><rect id="right-arm" x="13" y="9" width="2" height="2"/></g>
  </g><g class="eyes motion blink" fill="#000"><rect id="left-eye" x="4" y="8" width="1" height="2"/><rect id="right-eye" x="10" y="8" width="1" height="2"/></g></g>
  <g class="basket motion"><path d="M-5 6H19V9H17V18H-3V9H-5Z" fill="#8A5E3B"/><path d="M-3 9H17V17H-3Z" fill="#D4A66D"/><rect x="-1" y="10" width="2" height="6" fill="#F0C98F"/><rect x="4" y="10" width="2" height="6" fill="#F0C98F"/><rect x="9" y="10" width="2" height="6" fill="#F0C98F"/><rect x="14" y="10" width="2" height="6" fill="#F0C98F"/><rect x="-3" y="12" width="20" height="2" fill="#A87447"/></g>
</svg>
